<svg xmlns="http://www.w3.org/2000/svg" viewBox="0 0 358.63 330.12"><defs><style>.cls-1{fill:#231f20;}</style></defs><title>Asset 1</title><g id="Layer_2" data-name="Layer 2"><g id="Layer_1-2" data-name="Layer 1"><path class="cls-1" d="M115.2,180.8c-23.71,5.85-47.32,9.75-71.83,8.87-8.2-.3-18-.84-24.75-6.14-8.61-6.78-4-18.86-.54-27.22,8.43-20.64,22.49-38.41,36.66-55.37Q66.31,87.1,78,73.36q5.64-6.63,11.3-13.24c2.1-2.45,4.16-4.93,6.3-7.34a24.38,24.38,0,0,1,2.13-2.3c-.34.3-1.49-1.09-1.27-.27.37,1.37,1.27,2.58,1.62,4a38.23,38.23,0,0,1,.67,6.85q.54,9.91,1,19.81c.59,12.56,1.18,25.11,1.68,37.66Q103,157.24,104,195.91c.7,25.41,2,50.94,1.66,76.36-.17,11.86-.93,23.86-4,35.38-.72,2.73-1.26,7.16-4.82,5.83-4.52-1.69-8.32-6.47-11.59-9.84-7.47-7.68-15-16.8-16-27.9C68.08,263.09,74.86,251,81.86,241,95.46,221.61,114,206,135,195.08c9.58-5,1.09-19.56-8.48-14.51a166.82,166.82,0,0,0-57,49.48c-8,11-14.63,23.43-16.29,37.11-1.57,13,2.72,25.51,10.39,36,7,9.52,16.66,21.37,28,25.64,14.24,5.37,23.21-6.23,26.16-18.66,6.66-28.08,3.86-57.87,3.09-86.43-.81-30.41-1.68-60.83-2.84-91.23q-.87-22.8-2-45.59-.56-10.9-1.21-21.8c-.37-6.29-.4-12.71-2.77-18.64C107.18,34.22,94.27,31,85.14,41.18,75.52,51.94,66.53,63.34,57.32,74.46,40.23,95.1,21.93,115.72,10,139.92c-6.17,12.48-13.56,29-8,42.87,4.38,11,15.55,16.42,26.68,18.26,14.54,2.39,29.83,1.28,44.36-.64,15.67-2.07,30.92-5.68,45.5-11.84,4.56-1.93,1.23-8.89-3.28-7.77Z"/><path class="cls-1" d="M106,44.82c20.23,44.59,56.07,82,69.66,129.68,2.12,7.45,13.58,6.05,13.57-1.84,0-24.32.64-48.45,3.95-72.6A447,447,0,0,1,209,29.14l-12.64,3.33c8.78,6.8,10.46,19.23,13.23,29.32q5.34,19.4,10.5,38.83,10.51,39.33,20.41,78.83c2.39,9.57,17.17,5.51,14.78-4.07-7-27.93-14.09-55.81-21.62-83.59Q228,71,222.2,50.17C219,38.71,215.29,28.1,205.55,20.6c-4-3.11-9.85.35-11.11,4.52-14.32,47.16-22.13,98.19-19.05,147.54L189,170.83c-19.11-47.09-51.45-86.07-77.77-129.06-2.07-3.38-6.81-.43-5.22,3Z"/><path class="cls-1" d="M216,67.37c-6.74-13.29-10.07-32.46-2.51-46.16,7.38-13.35,23.44-10.82,35.23-5.45C261,21.36,274,30,280.73,42c7.66,13.81-.13,26.88-10.1,36.93a149.32,149.32,0,0,1-44,30.21c-5.22,2.39-4.47,10.25,0,12.86q30.72,17.88,60.91,36.66,14.65,9.15,29.19,18.55c10.22,6.61,20.16,13.63,30.91,19.35,6.79,3.61,15.22-5.85,8.65-11.21-18.47-15.07-39.85-27.06-60.14-39.53q-30.69-18.85-62-36.68V122c17.89-8.41,34.86-20.13,48.31-34.7,12.92-14,20-32.09,10.92-50.16-7.81-15.52-24.79-26.83-40.54-33-15.24-6-34.63-7.06-45.39,7.51-12.49,16.91-7.88,42.61,3.73,58.56A2.82,2.82,0,0,0,216,67.37Z"/><path class="cls-1" d="M102.13,47.83C108,57.55,115,66.5,121.55,75.75c6.76,9.53,13.29,19.22,19.69,29q9.34,14.3,18.11,29,4.26,7.14,8.37,14.36c2.84,5,5.25,11.64,9.6,15.42,4.75,4.13,11.09.08,10.1-5.88-.89-5.39-5.19-10.69-8-15.33q-4.5-7.53-9.15-15Q161,112.43,151,98c-6.46-9.39-13.19-18.61-20.07-27.71-7.12-9.41-14.21-18.91-22.71-27.13-3.14-3-8.47.85-6.13,4.72Z"/></g></g></svg>